<?xml version="1.0" standalone="no"?>
<!DOCTYPE svg PUBLIC "-//W3C//DTD SVG 20010904//EN"
 "http://www.w3.org/TR/2001/REC-SVG-20010904/DTD/svg10.dtd">
<svg version="1.0" xmlns="http://www.w3.org/2000/svg"
 width="682.000000pt" height="174.000000pt" viewBox="0 0 682.000000 174.000000"
 preserveAspectRatio="xMidYMid meet">

<g transform="translate(0.000000,174.000000) scale(0.100000,-0.100000)"
fill="#000000" stroke="none">
<path d="M1792 1214 l-22 -19 2 -365 3 -365 28 -9 c22 -8 31 -6 45 7 14 15 17
42 20 172 l3 155 93 0 c200 0 298 41 341 142 37 89 4 192 -77 241 -63 39 -100
46 -268 54 -132 5 -147 4 -168 -13z m321 -75 c90 -25 131 -111 92 -192 -28
-59 -78 -77 -218 -77 l-117 0 0 140 0 140 103 0 c56 0 119 -5 140 -11z"/>
<path d="M2500 1223 c-39 -13 -40 -26 -40 -388 0 -330 1 -353 19 -369 16 -14
44 -16 236 -14 195 3 219 5 229 21 8 12 8 22 0 35 -10 15 -33 17 -197 20
l-187 2 -2 337 c-3 323 -4 336 -23 348 -11 7 -27 10 -35 8z"/>
<path d="M3333 1220 c-12 -5 -29 -19 -37 -32 -35 -53 -287 -688 -281 -707 7
-23 34 -34 58 -25 9 3 33 48 53 100 l37 94 196 0 197 0 33 -90 c37 -99 57
-120 97 -101 14 6 24 19 24 31 0 18 -241 615 -275 681 -24 45 -63 64 -102 49z
m111 -288 c42 -106 76 -195 76 -198 0 -2 -72 -4 -161 -4 -128 0 -160 3 -157
13 11 47 154 394 160 389 4 -4 41 -94 82 -200z"/>
<path d="M3875 1217 c-11 -5 -23 -15 -27 -21 -14 -20 -9 -721 4 -734 17 -17
44 -15 62 4 14 13 16 57 16 322 l0 306 208 -315 c115 -174 217 -319 226 -322
31 -12 55 -8 76 13 19 19 20 33 20 374 0 354 0 355 -22 370 -19 13 -25 14 -43
2 -19 -13 -20 -24 -23 -327 l-2 -314 -210 315 c-218 328 -240 352 -285 327z"/>
<path d="M4598 1223 c-22 -6 -33 -40 -18 -58 9 -11 43 -15 128 -17 l117 -3 5
-339 c4 -302 7 -340 22 -349 12 -8 24 -8 42 1 l26 12 0 339 0 340 123 3 c121
3 122 3 125 27 7 48 -11 51 -292 50 -144 -1 -269 -3 -278 -6z"/>
<path d="M5433 985 c-18 -8 -42 -29 -53 -47 l-20 -33 0 31 c0 50 -41 72 -74
38 -14 -13 -16 -50 -16 -250 0 -143 4 -243 10 -255 12 -21 50 -25 68 -7 8 8
12 62 12 175 0 125 4 172 15 200 27 65 39 73 148 97 29 7 36 33 15 54 -16 16
-65 15 -105 -3z"/>
<path d="M5775 976 c-120 -55 -177 -204 -136 -352 16 -60 72 -128 128 -155 94
-47 251 -27 321 40 24 24 26 29 13 50 -8 12 -21 9 -79 -18 -70 -32 -134 -41
-183 -26 -67 21 -119 90 -119 161 l0 34 208 2 207 3 3 28 c6 50 -26 136 -69
182 -70 76 -194 98 -294 51z m203 -66 c34 -21 71 -87 72 -127 0 -23 0 -23
-165 -23 -152 0 -165 1 -165 18 0 33 45 107 79 129 45 30 132 32 179 3z"/>
<path d="M6409 987 c-96 -36 -156 -122 -166 -235 -11 -127 42 -234 141 -284
49 -25 146 -34 201 -19 59 16 135 67 135 90 0 34 -20 34 -84 1 -129 -65 -248
-31 -293 85 -6 16 -12 42 -12 58 l-1 27 210 0 210 0 0 48 c-1 92 -49 176 -123
214 -52 26 -166 34 -218 15z m181 -80 c38 -25 65 -66 75 -114 l7 -33 -171 0
-171 0 6 28 c11 46 47 102 79 122 44 28 131 27 175 -3z"/>
</g>
</svg>
