<svg version="1.0" xmlns="http://www.w3.org/2000/svg" width="933.333" height="933.333" viewBox="0 0 700 700"><g fill="green"><path d="M359.8 15.3c-7.3 12.2-12 22.6-13.7 30.5-1.5 7.3 0 18 3.8 25.6 3.4 6.9 10.2 14.2 12.4 13.3.8-.3 1.7-2.6 2.1-5.4 1.5-10.3 3.8-19.9 5.1-21.2 1.1-1.1 1.6-.8 3 2 1 1.8 3.1 7.5 4.6 12.5 1.6 5.1 3.5 9.6 4.1 10 2 1.2 8.5-7.2 10.7-13.8 4.1-12.2 2.4-25.5-5-38.7-4.3-7.5-18-26.1-19.3-26.1-.6 0-4.1 5.1-7.8 11.3zm15.2 1.9c3.3 4.6 8.2 12.5m54.3 20.7c-17.1 5.1-23.8 9.3-29.1 18.3-3 5.2-4.7 17.4-2.5 18.7.6.4 3.7-1.3 6.8-3.7 12.3-9.4 14.3-8.6 8.4 3.2-2.3 4.4-4.1 8.5-4.1 9.1 0 1.8 7.4 1 12.6-1.4 6.4-3 12-8.5 14.5-14.4 4.2-9.7 7.8-32.1 5.4-32.8-.5-.2-5.9 1.2-12 3zm9.3 4.9c.4 4.4-3.1 19.4M208.3 58.6c-1.2 3.2.4 25.8 2.3 31.8 2.3 7.2 8.7 14.7 15.5 18.2 4.9 2.4 9.3 3.1 10.3 1.5.3-.4-1-4.8-3-9.6-2.4-5.9-3.2-9.1-2.5-9.8 1.2-1.2 2.4-.4 10.6 6.7 6.8 6 8 5.4 7.9-3.7-.2-10.3-5.1-18.7-14.4-24.7-4.1-2.6-24.2-12-25.7-12-.2 0-.6.7-1 1.6zm65.4-.9c-1.2 1.2-.7 16.9.8 25.8 1.7 9.9 3.1 13 8.2 18.6 5.8 6.4 16.8 11.1 18.8 8 .3-.6-1-4.9-2.9-9.7-5-12.7-3.8-13.5 6.5-4.3 5.8 5.1 7.2 5.9 8.4 4.9 2.2-1.8 1.9-9.9-.6-16.7-3.8-10-14.5-18.2-33.1-25.3-6.2-2.3-5.3-2.1-6.1-1.3zm16.8 9.3c10.1 4.9M333.5 87c-3.1 4.9-8.5 26.1-8.5 33 0 8.6 5.8 19.9 12.4 23.9 6 3.8 6.3 3.3 6.2-8.2-.1-12.4 1.1-13.2 6.2-4.2 6.5 11.3 6.1 10.9 8.2 9 4.5-4.1 5.1-20.5 1.1-28.4-3.7-7.2-24.2-27.4-25.6-25.1zm123 13.6c-15.3 4.5-28.2 11.6-32.5 23-2.1 5.8-2.7 13.9-1 14.9 1 .6 17-10.4 17-11.7 0-1.6-2.7-.7-7.7 2.8-7.9 5.4-9.3 3.2-3.3-7.1 4.4-9.5 10.8-13.7 27.6-18.6 5.3-1.6 7.9-1.9 4.7-1.1 1.5 1.5-2.2 20.4-5.1 26.6-2.5 5.3-9.5 10-14.7 14.3-5.2 2.2-6 .7-2.9-5.4 2.9-5.7 3.5-11.3 1.5-11.2-.8 0-1.2.7-1 1.7.3 1-1.3 5.4-3.5 9.7-2.2 4.4-3.8 8.4-3.5 8.8 1.7 2.8 13.7-1.2 20.3-6.8 4.6-3.9 8.9-13.6 11.2-25.6 2.2-11.6 2.4-16.8.7-16.7-.7 0M533.6 100.1c-25 6.7-35.6 16.6-35.6 33.1 0 6.2 1.1 6.2 9.9-.2 6.6-4.8 10.1-6.2 10.1-4 0 .6-1.8 4.7-4 9.1-2.3 4.4-3.8 8.4-3.5 8.9 1 1.6 6 1.1 10.8-.9 6.1-2.6 12.3-8.4 15.3-14.3s6.2-19.2 6.6-27.3c.4-7 .3-7.1-9.6-4.4zm6.2 5.8c.4 4.1-2.3 16.8m-401-19.1c-6.4 1.3-15.9 4-17.8 5.1-.8.5 1.3 3.6 9.7 14.1 9.1 11.4 19.1 17.2 29.8 17.2 5.4 0 13.8-3.3 13.8-5.4 0-.8-3.1-3.4-6.9-5.6-12.3-7.3-12-8.9 1.4-8 5 .3 9.4.3 10-.2 1.1-.9-1.5-5.9-5.2-9.9-1.3-1.5-5-3.9-8.1-5.5-6.8-3.5-15.8-4.1-26.7-1.8zm24.5 3.9c4.3 2.1m223.1 6.7c-10.9 11.2-14 15.2-19 24.2-3.9 7-3.9 7-3.9 18.5 0 10.5.2 11.9 2.6 16.5 1.5 2.7 3.6 5.8 4.6 6.8 1.9 1.6 2 1.6 3.6-.1.9-1 2.3-3.6 3.1-5.7 2.7-7.7 7.5-17.5 8.5-17.5 2 0 2.9 3.6 3.6 14 .4 5.8 1.2 11.3 1.7 12.3.8 1.5 1.1 1.6 3.7.3 6.3-3.3 13.8-14.7 15.9-24.4 1.4-6-.2-18.4-3.7-28.8-3.4-10.1-9.5-23.9-10.9-24.8-.5-.3-4.9 3.6-9.8 8.7z"/><path d="M278.7 125.7c-1 1-.8 17.7.3 27.3 1.1 8.9 3.3 17.5 5.7 22.4 2 4 8.9 11.3 14 14.7 5 3.5 16.8 6.8 18.4 5.2.8-.8-.3-4.4-3.4-11.9-2.5-6-4.7-11.8-4.9-12.9-.5-3.2 2.4-2.8 7.5 1.2 2.6 2.1 7.2 5.8 10.3 8.2 3.8 3.1 5.8 4.1 6.5 3.4.7-.7 1-4.6.7-10-.5-14-6.5-24.8-17.4-31.8-8-5.1-16.7-9.3-27.2-13.1-10.5-3.8-9.6-3.6-10.5-2.7zm-73.2 5c-6.9 1.4-18.1 4.6-18.9 5.3-.5.5 2 4.5 5.6 9.2 12.7 16.2 21.1 21.8 32.8 21.7 6.5 0 15.1-2.6 15.8-4.7.1-.5-3.6-3.4-8.3-6.2-4.7-2.9-8.4-5.8-8.2-6.4.3-.7 4-1.1 10.3-1.1 8 0 9.9-.3 10.2-1.5.4-2.5-8.4-11.6-14-14.4-4.5-2.3-6.4-2.6-14.2-2.5-5 .1-10 .3M451.5 161c-13.6 1.6-20.8 5.1-28.5 13.8-6.2 7-11 18.9-8.2 20.5.4.3 5.4-1 11.2-2.9 5.8-1.8 11.7-3.6 13.3-3.9 5.1-1.2 3.2 2.9-5.9 12.5-9.9 10.3-9.9 11.4-.6 12.6 7.1.9 15.7-.8 23.2-4.6 9.2-4.6 15.7-13 25.7-33 3.6-7.1 5.9-12.8 5.4-13.3-1-1-18-2.7M509 168.3c-9.3 2.6-18.5 10.9-20.8 18.5-2.2 7.3-1.7 7.5 9.6 3.7 4.1-1.4 8-2.5 8.8-2.5 2.9 0 1.2 3.4-5.2 10-6.1 6.4-6.4 6.9-4.6 7.9 3.3 1.8 12.7 1.3 18.6-.9 7.7-2.9 14.6-10.7 21.9-24.7 4.2-8.1 5.4-11.4 4.5-11.9-2.2-1.4-28-1.5-32.8-.1zm27.1 2.7c1.8 1m-386.4 6.9c-6.2 1.6-28.5 15-28.5 17.1 0 1.4 14.3 10.8 21.7 14.2 8.3 3.9 16.9 4.7 24.5 2.3 6.1-1.9 14.9-8.7 13.3-10.3-.5-.5-4.8-1.7-9.5-2.7-9.5-2-12.4-3.7-9.4-5.2 1.1-.6 4.8-1.8 8.4-2.8 3.6-.9 7.3-2.2 8.3-2.7 1.8-.9 1.8-1 0-3-4.1-4.6-10-7-18-7.4-4.3-.2-9.1 0M242.1 193c-7.9 1.7-17.4 5.1-28.1 10.3-13.6 6.5-23 11.9-23 13.2.1.5 3.9 4.4 8.6 8.5 23.6 20.7 41 30 56 30 7.3 0 18.5-2.5 24.2-5.4 6.6-3.4 12.7-8.9 11.9-10.8-.3-.9-5.2-3.1-11.9-5.3-13.8-4.6-21.8-8.1-21.8-9.4 0-2 4.2-3.2 16.6-5.2 14.7-2.2 18.6-3.1 19.1-4.5.5-1.5-8.5-11.3-13-14.1-10.4-6.6-27.1-9.7-38.6-7.3zm318.4 3.1c-5.3 2.8-10.2 7.6-9 8.8.6.5 4.2 1.1 8.1 1.3 5.5.3 7.1.1 6.7-.9-.3-.7-2.3-1.6-4.4-1.9-2.2-.4-4.2-1.1-4.5-1.5-.8-1.3 7.5-4.9 11.2-4.9 4.4 0 15.9 3.7 17.5 5.6 1.2 1.5.7 2.2-3.6 6.2-5.9 5.3-11.6 8.1-16.7 8.2-5 0-5.6-1.5-1.7-5.1 1.7-1.6 3-3.1 2.8-3.4-.8-.8-12.9 5.8-12.9 7 0 1.8 7.3 4.5 12.2 4.5 5.9 0 11.7-3.2 20-11l7.3-6.7-4-2c-5.8-3-17.1-6.3-21.4-6.3m-219.7 25.8c-14.2 21.3-17.5 26.7-25.4 41.2-14.2 26.2-23.1 51.5-27.5 77.7-2.5 14.9-1.7 52.2 1.4 67.8 4.4 21.9 13.1 49.2 23 72.4 2.2 5.1 3.9 9.7 3.6 10.1-.2.4-2.6.5-5.2.3-2.6-.3-6.8 0-9.2.6-4.2.9-4.7.8-8-1.8-6.8-5.3-12.1-7.4-20.4-7.9-9.4-.6-17.1 1.7-29.2 8.7-11.8 6.7-39.4 27.6-40.5 30.7-1.2 3.2-1.3 17.1-.1 17.8 2.2 1.4 48.6 11.6 65.8 14.5 28.5 4.8 63.3 6.1 98.3 3.6 31.7-2.2 43.2-4.2 78.1-14.1 8.6-2.4 17.9-4.9 20.7-5.5 2.9-.6 5.4-1.5 5.7-2 .3-.4-3.6-5-8.7-10.2-17.1-17.1-33.4-22.6-66.8-22.7-16.3-.1-26.1-1.9-35.6-6.6-12.7-6.3-21.8-18.5-27.2-36.9-5.6-18.8-15.2-66.8-15.2-75.8 0-12.2 5.6-19.7 19-25.8 33.8-15.4 52.6-30.8 73.8-60.7 6.5-9.1 7-11.5 1.4-7.1-8.8 6.8-57.1 39.5-70.2 47.4-9.9 6-17.7 9.8-22.1 10.9-4.5 1-5.3-1.1-4.5-12.7 1.5-22 9.7-52.6 24.6-92.2 1-2.8 4.6-12.4 7.8-21.5 3.3-9.1 6.3-17.3 6.7-18.3.4-.9.3-1.7-.1-1.7-.5 0-6.8 8.9-14 19.8zm2.6 4.1c0 .5-3.3 10-7.4 21.2-15.7 43.4-22.6 70.8-22.9 91.1"/><path d="M389.7 220c-4.3 1.1-8.9 3.4-13 6.4-5.6 4.1-11.6 16.3-8.8 18 .6.4 4.9-.5 9.6-2 12.2-3.8 13-2.5 4 6.7-6.7 6.7-6.9 7.1-5.1 8.5 2.9 2.1 11.6 1.7 18.1-.7 9.7-3.6 15-9.6 23.6-26.7 3.1-6.1 4.3-9.4 3.6-9.9-1.8-1.1-27.8-1.3-32-.3zm27 3.6c1.3 3.3-9.9 22.2m61.4-12.2c-12.1 1.9-18.9 4.5-26.5 10.2-11.3 8.6-18.8 20.6-19.9 31.7-.4 4.3 1.7 4.3 16.7-.5 24.2-7.7 25.5-6.1 9.1 10.9-6.4 6.6-11.6 12.6-11.6 13.5 0 3.9 17.3 5.9 27.9 3.1 21.3-5.5 31.8-16.3 48.4-49.5 4.5-8.9 8.2-17.9 7.6-18.4-.8-.6-29.8-2.6-35.9-2.5-3.6 0-10.7.7m63.2 17.4c-3.2 1.7-6.5 5-5.9 5.9.3.5 2.7 1.1 5.4 1.5 2.7.4 5.5 1.3 6.1 2 1.2 1.5.9 1.7-6.3 3.8-2.3.7-4.4 1.8-4.5 2.3-.2.6 1.1 2.2 2.9 3.4 2.7 2 4.5 2.4 10.3 2.4 6.3 0 7.6-.4 13.1-3.7 3.3-2 7.1-4.6 8.5-5.7l2.4-2.1-2.8-2.3c-1.5-1.3-5.6-3.8-9-5.5-5-2.6-7.4-3.2-12.2-3.2-3.3 0-6.9.6-8 1.2zm19.7 5.1c3.4 1.8M182 251.2c-12.5 5.5-28 15.1-28 17.3 0 1.8 14.4 11 22.6 14.5 9.1 3.9 18.8 4.1 26.6.6 5.7-2.5 10.3-6.7 9.6-8.7-.3-.8-4.3-2.1-9.3-3.1-13.7-2.7-14-4.6-.9-7.9 10.5-2.7 11.6-3.9 7.1-7.4-7.6-5.7-20.9-8.3-27.7-5.3zm20.8 4.7c2.3 1.2m47.2 14.3c-7.5 2.5-25.7 11.2-27.3 13.1-1.8 2.2 16.4 17.2 27.6 22.9 6.7 3.4 17.5 4.6 25.1 2.7 5.5-1.4 15.6-7.6 15.1-9.3-.3-.7-4.8-2.6-10.2-4.4-5.4-1.9-10.5-3.9-11.3-4.5-2.6-2.2.9-3.9 10.6-5.1 5-.6 9.9-1.7 10.9-2.4 1.5-1.1 1.2-1.7-3.4-6.2-9.3-9-22.7-11.4-37.1-6.8zm24.9 2.6c2.9 1.1 6.7 3.1"/></g></svg>