<svg version="1.0" xmlns="http://www.w3.org/2000/svg" width="700.000000pt" height="700.000000pt" viewBox="0 0 700.000000 700.000000" preserveAspectRatio="xMidYMid meet">
    <metadata>
Created by potrace 1.12, written by Peter Selinger 2001-2015
</metadata>
    <g transform="translate(0.000000,700.000000) scale(0.100000,-0.100000)" fill="#000000" stroke="none">
        <path fill="#00d1b2" d="M3598 6847 c-73 -122 -120 -226 -137 -305 -15 -73 0 -180 38 -256 34
-69 102 -142 124 -133 8 3 17 26 21 54 15 103 38 199 51 212 11 11 16 8 30
-20 10 -18 31 -75 46 -125 16 -51 35 -96 41 -100 20 -12 85 72 107 138 41 122
24 255 -50 387 -43 75 -180 261 -193 261 -6 0 -41 -51 -78 -113z m152 -19 c33
-46 82 -125 108"></path>
        <path fill="#00d1b2" d="M4375 6496 c-171 -51 -238 -93 -291 -183 -30 -52 -47 -174 -25 -187
6 -4 37 13 68 37 123 94 143 86 84 -32 -23 -44 -41 -85 -41 -91 0 -18 74 -10
126 14 64 30 120 85 145 144 42 97 78 321 54 328 -5 2 -59 -12 -120 -30z m93
-49 c4 -44 -31 -194"></path>
        <path fill="#00d1b2" d="M2083 6414 c-12 -32 4 -258 23 -318 23 -72 87 -147 155 -182 49 -24
93 -31 103 -15 3 4 -10 48 -30 96 -24 59 -32 91 -25 98 12 12 24 4 106 -67 68
-60 80 -54 79 37 -2 103 -51 187 -144 247 -41 26 -242 120 -257 120 -2 0 -6
-7 -10 -16z m147"></path>
        <path fill="#00d1b2" d="M2737 6423 c-12 -12 -7 -169 8 -258 17 -99 31 -130 82 -186 58 -64
168 -111 188 -80 3 6 -10 49 -29 97 -50 127 -38 135 65 43 58 -51 72 -59 84
-49 22 18 19 99 -6 167 -38 100 -145 182 -331 253 -62 23 -53 21 -61 13z m168
-93 c101 -49 149"></path>
        <path fill="#00d1b2" d="M3335 6130 c-31 -49 -85 -261 -85 -330 0 -86 58 -199 124 -239 60
-38 63 -33 62 82 -1 124 11 132 62 42 65 -113 61 -109 82 -90 45 41 51 205 11
284 -37 72 -242 274 -256 251z m121"></path>
        <path fill="#00d1b2" d="M5336 5999 c-250 -67 -356 -166 -356 -331 0 -62 11 -62 99 2 66 48
101 62 101 40 0 -6 -18 -47 -40 -91 -23 -44 -38 -84 -35 -89 10 -16 60 -11
108 9 61 26 123 84 153 143 30 59 62 192 66 273 4 70 3 71 -96 44z m62 -58 c4
-41 -23 -168"></path>
        <path fill="#00d1b2" d="M1365 5964 c-64 -13 -159 -40 -178 -51 -8 -5 13 -36 97 -141 91 -114
191 -172 298 -172 54 0 138 33 138 54 0 8 -31 34 -69 56 -123 73 -120 89 14
80 50 -3 94 -3 100 2 11 9 -15 59 -52 99 -13 15 -50 39 -81 55 -68 35 -158 41
-267 18z m245 -39 c43 -21 111"></path>
        <path fill="#00d1b2" d="M3884 5837 c-109 -112 -140 -152 -190 -242 -39 -70 -39 -70 -39 -185
0 -105 2 -119 26 -165 15 -27 36 -58 46 -68 19 -16 20 -16 36 1 9 10 23 36 31
57 27 77 75 175 85 175 20 0 29 -36 36 -140 4 -58 12 -113 17 -123 8 -15 11
-16 37 -3 63 33 138 147 159 244 14 60 -2 184 -37 288 -34 101 -95 239 -109
248 -5 3 -49 -36 -98 -87z"></path>
        <path fill="#00d1b2" d="M2787 5743 c-10 -10 -8 -177 3 -273 11 -89 33 -175 57 -224 20 -40
89 -113 140 -147 50 -35 168 -68 184 -52 8 8 -3 44 -34 119 -25 60 -47 118
-49 129 -5 32 24 28 75 -12 26 -21 72 -58 103 -82 38 -31 58 -41 65 -34 7 7
10 46 7 100 -5 140 -65 248 -174 318 -80 51 -167 93 -272 131 -105 38 -96 36
-105 27z m143"></path>
        <path fill="#00d1b2" d="M2055 5693 c-69 -14 -181 -46 -189 -53 -5 -5 20 -45 56 -92 127 -162
211 -218 328 -217 65 0 151 26 158 47 1 5 -36 34 -83 62 -47 29 -84 58 -82 64
3 7 40 11 103 11 80 0 99 3 102 15 4 25 -84 116 -140 144 -45 23 -64 26 -142
25 -50 -1 -100 -3"></path>
        <path fill="#00d1b2" d="M4515 5390 c-136 -16 -208 -51 -285 -138 -62 -70 -110 -189 -82 -205
4 -3 54 10 112 29 58 18 117 36 133 39 51 12 32 -29 -59 -125 -99 -103 -99
-114 -6 -126 71 -9 157 8 232 46 92 46 157 130 257 330 36 71 59 128 54 133
-10 10 -180 27 -251"></path>
        <path fill="#00d1b2" d="M5090 5317 c-93 -26 -185 -109 -208 -185 -22 -73 -17 -75 96 -37 41
14 80 25 88 25 29 0 12 -34 -52 -100 -61 -64 -64 -69 -46 -79 33 -18 127 -13
186 9 77 29 146 107 219 247 42 81 54 114 45 119 -22 14 -280 15 -328 1z m271
-27 c18 -10 18"></path>
        <path fill="#00d1b2" transform="rotate(7 0 0) " d="M5090 5317 c-93 -26 -185 -109 -208 -185 -22 -73 -17 -75 96 -37 41
14 80 25 88 25 29 0 12 -34 -52 -100 -61 -64 -64 -69 -46 -79 33 -18 127 -13
186 9 77 29 146 107 219 247 42 81 54 114 45 119 -22 14 -280 15 -328 1z m271
-27 c18 -10 18"></path>
        <path fill="#00d1b2" d="M1515 5211 c-62 -16 -285 -150 -285 -171 0 -14 143 -108 217 -142 83
-39 169 -47 245 -23 61 19 149 87 133 103 -5 5 -48 17 -95 27 -95 20 -124 37
-94 52 11 6 48 18 84 28 36 9 73 22 83 27 18 9 18 10 0 30 -41 46 -100 70
-180 74 -43 2 -91 0"></path>
        <path fill="#00d1b2" d="M2421 5070 c-79 -17 -174 -51 -281 -103 -136 -65 -230 -119 -230
-132 1 -5 39 -44 86 -85 236 -207 410 -300 560 -300 73 0 185 25 242 54 66 34
127 89 119 108 -3 9 -52 31 -119 53 -138 46 -218 81 -218 94 0 20 42 32 166
52 147 22 186 31 191 45 5 15 -85 113 -130 141 -104 66 -271 97 -386 73z m224
"></path>
        <path fill="#00d1b2" d="M3484 4802 c-142 -213 -175 -267 -254 -412 -142 -262 -231 -515 -275
-777 -25 -149 -17 -522 14 -678 44 -219 131 -492 230 -724 22 -51 39 -97 36
-101 -2 -4 -26 -5 -52 -3 -26 3 -68 0 -92 -6 -42 -9 -47 -8 -80 18 -68 53
-121 74 -204 79 -94 6 -171 -17 -292 -87 -118 -67 -394 -276 -405 -307 -12
-32 -13 -171 -1 -178 22 -14 486 -116 658 -145 285 -48 633 -61 983 -36 317
22 432 42 781 141 86 24 179 49 207 55 29 6 54 15 57 20 3 4 -36 50 -87 102
-171 171 -334 226 -668 227 -163 1 -261 19 -356 66 -127 63 -218 185 -272 369
-56 188 -152 668 -152 758 0 122 56 197 190 258 338 154 526 308 738 607 65
91 70 115 14 71 -88 -68 -571 -395 -702 -474 -99 -60 -177 -98 -221 -109 -45
-10 -53 11 -45 127 15 220 97 526 246 922 10 28 46 124 78 215 33 91 63 173
67 183 4 9 3 17 -1 17 -5 0 -68 -89 -140 -198z m26 -41 c0 -5 -33 -100 -74
-212 -157 -434 -226 -708 -229 -911"></path>
        <path fill="#00d1b2" d="M3897 4800 c-43 -11 -89 -34 -130 -64 -56 -41 -116 -163 -88 -180 6
-4 49 5 96 20 122 38 130 25 40 -67 -67 -67 -69 -71 -51 -85 29 -21 116 -17
181 7 97 36 150 96 236 267 31 61 43 94 36 99 -18 11 -278 13 -320 3z m270
-36 c13 -33 -99 -222"></path>
        <path fill="#00d1b2" d="M4682 4664 c-121 -19 -189 -45 -265 -102 -113 -86 -188 -206 -199
-317 -4 -43 17 -43 167 5 242 77 255 61 91 -109 -64 -66 -116 -126 -116 -135
0 -39 173 -59 279 -31 213 55 318 163 484 495 45 89 82 179 76 184 -8 6 -298
26 -359 25 -36 0 -107 -7"></path>
        <path fill="#00d1b2" d="M5365 4498 c-32 -17 -65 -50 -59 -59 3 -5 27 -11 54 -15 27 -4 55
-13 61 -20 12 -15 9 -17 -63 -38 -23 -7 -44 -18 -45 -23 -2 -6 11 -22 29 -34
27 -20 45 -24 103 -24 63 0 76 4 131 37 33 20 71 46 85 57 l24 21 -28 23 c-15
13 -56 38 -90 55 -50 26 -74 32 -122 32 -33 0 -69 -6 -80 -12z m197 -51 c34
-18 63"></path>
        <path fill="#00d1b2" d="M1820 4488 c-125 -55 -280 -151 -280 -173 0 -18 144 -110 226 -145
91 -39 188 -41 266 -6 57 25 103 67 96 87 -3 8 -43 21 -93 31 -137 27 -140 46
-9 79 105 27 116 39 71 74 -76 57 -209 83 -277 53z m208 -47 c23 -12 40"></path>
        <path fill="#00d1b2" d="M2523 4286 c-75 -25 -257 -112 -273 -131 -18 -22 164 -172 276 -229
67 -34 175 -46 251 -27 55 14 156 76 151 93 -3 7 -48 26 -102 44 -54 19 -105
39 -113 45 -26 22 9 39 106 51 50 6 99 17 109 24 15 11 12 17 -34 62 -93 90
-227 114 -371 68z m249 -26 c29 -11 67 -31"></path>

    </g>
</svg>
