 <svg version="1.0" xmlns="http://www.w3.org/2000/svg" width="700.000000pt" height="700.000000pt" viewBox="0 0 700.000000 700.000000" preserveAspectRatio="xMidYMid meet">
<metadata>
Created by potrace 1.12, written by Peter Selinger 2001-2015
</metadata>
<g transform="translate(0.000000,700.000000) scale(0.100000,-0.100000)" fill="#000000" stroke="none">
<path fill="green" d="M3598 6847 c-73 -122 -120 -226 -137 -305 -15 -73 0 -180 38 -256 34
-69 102 -142 124 -133 8 3 17 26 21 54 15 103 38 199 51 212 11 11 16 8 30
-20 10 -18 31 -75 46 -125 16 -51 35 -96 41 -100 20 -12 85 72 107 138 41 122
24 255 -50 387 -43 75 -180 261 -193 261 -6 0 -41 -51 -78 -113z m152 -19 c33
-46 82 -125 108 -177 l47 -94 0 -107 c0 -99 -2 -111 -30 -166 -17 -32 -37 -59
-44 -59 -8 0 -27 38 -46 93 -18 52 -42 103 -53 114 -42 42 -76 -2 -99 -129 -9
-48 -20 -92 -25 -98 -15 -15 -75 60 -99 124 -27 74 -30 186 -5 261 35 103 154
320 176 320 5 0 36 -37 70 -82z"></path>
<path fill="green" d="M4375 6496 c-171 -51 -238 -93 -291 -183 -30 -52 -47 -174 -25 -187
6 -4 37 13 68 37 123 94 143 86 84 -32 -23 -44 -41 -85 -41 -91 0 -18 74 -10
126 14 64 30 120 85 145 144 42 97 78 321 54 328 -5 2 -59 -12 -120 -30z m93
-49 c4 -44 -31 -194 -57 -245 -37 -72 -158 -159 -184 -133 -7 7 -2 27 16 65
30 60 33 86 15 104 -20 20 -51 14 -105 -23 -29 -19 -57 -35 -63 -35 -18 0 -11
55 16 108 30 60 79 107 143 135 56 25 192 67 206 63 6 -1 11 -19 13 -39z"></path>
<path fill="green" d="M2083 6414 c-12 -32 4 -258 23 -318 23 -72 87 -147 155 -182 49 -24
93 -31 103 -15 3 4 -10 48 -30 96 -24 59 -32 91 -25 98 12 12 24 4 106 -67 68
-60 80 -54 79 37 -2 103 -51 187 -144 247 -41 26 -242 120 -257 120 -2 0 -6
-7 -10 -16z m147"></path>
<path fill="green" d="M2737 6423 c-12 -12 -7 -169 8 -258 17 -99 31 -130 82 -186 58 -64
168 -111 188 -80 3 6 -10 49 -29 97 -50 127 -38 135 65 43 58 -51 72 -59 84
-49 22 18 19 99 -6 167 -38 100 -145 182 -331 253 -62 23 -53 21 -61 13z m168
-93 c101 -49 149"></path>
<path fill="green" d="M3335 6130 c-31 -49 -85 -261 -85 -330 0 -86 58 -199 124 -239 60
-38 63 -33 62 82 -1 124 11 132 62 42 65 -113 61 -109 82 -90 45 41 51 205 11
284 -37 72 -242 274 -256 251z m121"></path>
<path fill="green" d="M4565 5994 c-193 -53 -282 -116 -325 -230 -21 -58 -27 -139 -10 -149
10 -6 170 104 170 117 0 16 -27 7 -77 -28 -79 -54 -93 -32 -44 71 44 95 108
137 276 186 53 16 79 19 86 12 15 -15 -22 -204 -51 -266 -25 -53 -95 -122
-147 -143 -52 -22 -60 -7 -29 54 29 57 35 112 12 112 -8 0 -12 -7 -10 -17 3
-10 -13 -54 -35 -97 -22 -44 -38 -84 -35 -88 17 -28 137 12 203 68 46 39 89
136 112 256 22 116 24 168 7 167 -7 0 -53 -12 -103 -25z"></path>
<path fill="green" d="M5336 5999 c-250 -67 -356 -166 -356 -331 0 -62 11 -62 99 2 66 48
101 62 101 40 0 -6 -18 -47 -40 -91 -23 -44 -38 -84 -35 -89 10 -16 60 -11
108 9 61 26 123 84 153 143 30 59 62 192 66 273 4 70 3 71 -96 44z m62 -58 c4
-41 -23 -168 -50 -230 -32 -76 -120 -151 -178 -151 -26 0 -25 10 5 70 28 55
31 80 13 98 -21 21 -54 13 -107 -23 -54 -38 -71 -38 -71 -2 1 63 72 162 145
200 51 26 205 77 225 74 9 -1 16 -15 18 -36z"></path>
<path fill="green" d="M1365 5964 c-64 -13 -159 -40 -178 -51 -8 -5 13 -36 97 -141 91 -114
191 -172 298 -172 54 0 138 33 138 54 0 8 -31 34 -69 56 -123 73 -120 89 14
80 50 -3 94 -3 100 2 11 9 -15 59 -52 99 -13 15 -50 39 -81 55 -68 35 -158 41
-267 18z m245 -39 c43 -21 111 -85 104 -97 -3 -4 -36 -8 -73 -8 -54 0 -71 -4
-85 -19 -26 -29 -13 -55 49 -96 82 -54 81 -62 -3 -72 -86 -10 -151 17 -236 97
-83 79 -131 143 -123 164 5 12 66 29 177 50 50 9 156 -1 190 -19z"></path>
<path fill="green" d="M3884 5837 c-109 -112 -140 -152 -190 -242 -39 -70 -39 -70 -39 -185
0 -105 2 -119 26 -165 15 -27 36 -58 46 -68 19 -16 20 -16 36 1 9 10 23 36 31
57 27 77 75 175 85 175 20 0 29 -36 36 -140 4 -58 12 -113 17 -123 8 -15 11
-16 37 -3 63 33 138 147 159 244 14 60 -2 184 -37 288 -34 101 -95 239 -109
248 -5 3 -49 -36 -98 -87z m138 -57 c105 -243 104 -416 -1 -549 -54 -67 -66
-58 -79 61 -8 80 -15 106 -32 122 -19 19 -22 20 -48 6 -20 -12 -38 -41 -66
-108 -45 -104 -59 -112 -91 -47 -14 28 -21 66 -23 127 -5 108 11 161 77 255
67 95 190 225 210 221 9 -2 31 -39 53 -88z"></path>
<path fill="green" d="M2787 5743 c-10 -10 -8 -177 3 -273 11 -89 33 -175 57 -224 20 -40
89 -113 140 -147 50 -35 168 -68 184 -52 8 8 -3 44 -34 119 -25 60 -47 118
-49 129 -5 32 24 28 75 -12 26 -21 72 -58 103 -82 38 -31 58 -41 65 -34 7 7
10 46 7 100 -5 140 -65 248 -174 318 -80 51 -167 93 -272 131 -105 38 -96 36
-105 27z m143 -73 c122 -48 229 -109 280 -160 51 -51 92 -140 98 -216 6 -80
-6 -87 -66 -37 -100 83 -141 100 -170 71 -19 -19 -15 -44 24 -139 20 -48 33
-93 29 -99 -17 -28 -105 10 -176 77 -90 84 -125 183 -136 389 -5 112 -2 154
12 154 3 0 50 -18 105 -40z"></path>
<path fill="green" d="M2055 5693 c-69 -14 -181 -46 -189 -53 -5 -5 20 -45 56 -92 127 -162
211 -218 328 -217 65 0 151 26 158 47 1 5 -36 34 -83 62 -47 29 -84 58 -82 64
3 7 40 11 103 11 80 0 99 3 102 15 4 25 -84 116 -140 144 -45 23 -64 26 -142
25 -50 -1 -100 -3 -111 -6z m240 -47 c54 -25 111 -78 101 -94 -3 -6 -31 -8
-66 -5 -45 4 -65 2 -85 -11 -45 -30 -28 -64 58 -115 63 -38 46 -61 -47 -61
-64 0 -107 14 -164 52 -52 36 -172 174 -172 199 0 29 116 57 240 58 70 1 94
-3 135 -23z"></path>
<path fill="green" d="M4515 5390 c-136 -16 -208 -51 -285 -138 -62 -70 -110 -189 -82 -205
4 -3 54 10 112 29 58 18 117 36 133 39 51 12 32 -29 -59 -125 -99 -103 -99
-114 -6 -126 71 -9 157 8 232 46 92 46 157 130 257 330 36 71 59 128 54 133
-10 10 -180 27 -251 25 -25 0 -72 -4 -105 -8z m309 -40 c22 -22 -114 -268
-191 -347 -69 -70 -169 -112 -268 -113 -71 0 -71 15 1 93 69 75 82 103 64 136
-14 28 -37 27 -143 -6 -108 -33 -122 -26 -89 42 41 85 127 160 214 186 86 26
387 33 412 9z"></path>
<path fill="green" d="M5090 5317 c-93 -26 -185 -109 -208 -185 -22 -73 -17 -75 96 -37 41
14 80 25 88 25 29 0 12 -34 -52 -100 -61 -64 -64 -69 -46 -79 33 -18 127 -13
186 9 77 29 146 107 219 247 42 81 54 114 45 119 -22 14 -280 15 -328 1z m271
-27 c18 -10 18 -13 4 -46 -23 -55 -85 -154 -125 -198 -19 -21 -57 -50 -85 -62
-47 -22 -124 -32 -138 -18 -3 4 14 30 38 58 47 53 51 65 35 97 -13 23 -51 25
-111 4 -73 -26 -83 -6 -32 62 36 49 83 81 144 97 63 17 241 21 270 6z"></path>
<path fill="green" d="M1515 5211 c-62 -16 -285 -150 -285 -171 0 -14 143 -108 217 -142 83
-39 169 -47 245 -23 61 19 149 87 133 103 -5 5 -48 17 -95 27 -95 20 -124 37
-94 52 11 6 48 18 84 28 36 9 73 22 83 27 18 9 18 10 0 30 -41 46 -100 70
-180 74 -43 2 -91 0 -108 -5z m193 -41 c23 -10 42 -25 42 -33 0 -8 -24 -21
-57 -31 -68 -21 -83 -32 -83 -57 0 -31 32 -54 94 -68 68 -15 71 -33 11 -65
-30 -16 -58 -21 -116 -21 -70 0 -83 3 -170 47 -52 26 -107 59 -124 72 l-30 26
25 20 c38 31 139 90 190 111 61 25 162 24 218 -1z"></path>
<path fill="green" d="M2421 5070 c-79 -17 -174 -51 -281 -103 -136 -65 -230 -119 -230
-132 1 -5 39 -44 86 -85 236 -207 410 -300 560 -300 73 0 185 25 242 54 66 34
127 89 119 108 -3 9 -52 31 -119 53 -138 46 -218 81 -218 94 0 20 42 32 166
52 147 22 186 31 191 45 5 15 -85 113 -130 141 -104 66 -271 97 -386 73z m224
-35 c32 -9 84 -29 115 -46 66 -35 139 -104 125 -118 -6 -6 -65 -19 -133 -30
-164 -28 -208 -52 -182 -102 14 -25 44 -40 169 -83 122 -43 137 -52 119 -74
-21 -24 -79 -58 -138 -78 -82 -28 -245 -25 -320 5 -104 43 -340 208 -420 295
-25 27 -25 28 -5 43 27 20 224 119 288 144 143 57 273 72 382 44z"></path>
<path fill="green" d="M5605 5039 c-53 -28 -102 -76 -90 -88 6 -5 42 -11 81 -13 55 -3 71
-1 67 9 -3 7 -23 16 -44 19 -22 4 -42 11 -45 15 -8 13 75 49 112 49 44 0 159
-37 175 -56 12 -15 7 -22 -36 -62 -59 -53 -116 -81 -167 -82 -50 0 -56 15 -17
51 17 16 30 31 28 34 -8 8 -129 -58 -129 -70 0 -18 73 -45 122 -45 59 0 117
32 200 110 l73 67 -40 20 c-58 30 -171 63 -214 63 -20 0 -54 -9 -76 -21z"></path>
<path fill="green" d="M3484 4802 c-142 -213 -175 -267 -254 -412 -142 -262 -231 -515 -275
-777 -25 -149 -17 -522 14 -678 44 -219 131 -492 230 -724 22 -51 39 -97 36
-101 -2 -4 -26 -5 -52 -3 -26 3 -68 0 -92 -6 -42 -9 -47 -8 -80 18 -68 53
-121 74 -204 79 -94 6 -171 -17 -292 -87 -118 -67 -394 -276 -405 -307 -12
-32 -13 -171 -1 -178 22 -14 486 -116 658 -145 285 -48 633 -61 983 -36 317
22 432 42 781 141 86 24 179 49 207 55 29 6 54 15 57 20 3 4 -36 50 -87 102
-171 171 -334 226 -668 227 -163 1 -261 19 -356 66 -127 63 -218 185 -272 369
-56 188 -152 668 -152 758 0 122 56 197 190 258 338 154 526 308 738 607 65
91 70 115 14 71 -88 -68 -571 -395 -702 -474 -99 -60 -177 -98 -221 -109 -45
-10 -53 11 -45 127 15 220 97 526 246 922 10 28 46 124 78 215 33 91 63 173
67 183 4 9 3 17 -1 17 -5 0 -68 -89 -140 -198z m26 -41 c0 -5 -33 -100 -74
-212 -157 -434 -226 -708 -229 -911 -2 -111 7 -128 68 -128 67 0 289 130 652
381 94 66 174 119 177 119 31 0 -64 -120 -187 -236 -116 -109 -248 -197 -413
-275 -209 -99 -264 -159 -272 -298 -3 -63 5 -119 47 -323 60 -293 82 -388 117
-494 69 -212 201 -348 389 -398 39 -11 134 -20 275 -26 118 -5 238 -14 265
-20 151 -33 278 -101 369 -200 44 -47 48 -54 33 -65 -21 -15 -434 -127 -572
-154 -132 -27 -238 -38 -485 -52 -337 -19 -689 1 -985 56 -188 35 -527 114
-542 127 -20 17 -17 131 5 156 21 24 203 162 303 230 235 157 376 173 544 58
39 -27 42 -27 140 -20 104 7 125 14 125 45 0 10 -27 84 -60 166 -275 674 -307
1212 -104 1745 51 135 150 335 235 478 131 218 179 286 179 251z"></path>
<path fill="green" d="M3897 4800 c-43 -11 -89 -34 -130 -64 -56 -41 -116 -163 -88 -180 6
-4 49 5 96 20 122 38 130 25 40 -67 -67 -67 -69 -71 -51 -85 29 -21 116 -17
181 7 97 36 150 96 236 267 31 61 43 94 36 99 -18 11 -278 13 -320 3z m270
-36 c13 -33 -99 -222 -159 -267 -61 -47 -176 -74 -193 -46 -4 5 14 32 39 59
25 27 46 57 46 68 0 43 -53 54 -131 27 -25 -9 -46 -12 -52 -6 -24 24 81 139
144 159 58 18 71 20 187 21 93 1 114 -2 119 -15z"></path>
<path fill="green" d="M4682 4664 c-121 -19 -189 -45 -265 -102 -113 -86 -188 -206 -199
-317 -4 -43 17 -43 167 5 242 77 255 61 91 -109 -64 -66 -116 -126 -116 -135
0 -39 173 -59 279 -31 213 55 318 163 484 495 45 89 82 179 76 184 -8 6 -298
26 -359 25 -36 0 -107 -7 -158 -15z m424 -31 c35 -4 44 -10 44 -25 0 -29 -111
-248 -174 -342 -97 -146 -199 -225 -339 -262 -93 -25 -227 -14 -227 17 0 7 45
58 100 115 89 91 100 107 100 139 0 64 -54 64 -239 0 -41 -14 -86 -25 -99 -25
-22 0 -24 3 -18 33 10 53 54 133 102 186 90 100 199 153 358 171 80 9 306 5
392 -7z"></path>
<path fill="green" d="M5365 4498 c-32 -17 -65 -50 -59 -59 3 -5 27 -11 54 -15 27 -4 55
-13 61 -20 12 -15 9 -17 -63 -38 -23 -7 -44 -18 -45 -23 -2 -6 11 -22 29 -34
27 -20 45 -24 103 -24 63 0 76 4 131 37 33 20 71 46 85 57 l24 21 -28 23 c-15
13 -56 38 -90 55 -50 26 -74 32 -122 32 -33 0 -69 -6 -80 -12z m197 -51 c34
-18 63 -39 63 -47 0 -8 -26 -30 -59 -49 -68 -40 -153 -54 -175 -28 -10 13 -8
18 18 32 17 8 31 22 31 31 0 24 -19 54 -35 54 -7 0 -17 5 -20 10 -12 20 7 30
60 30 41 0 68 -8 117 -33z"></path>
<path fill="green" d="M1820 4488 c-125 -55 -280 -151 -280 -173 0 -18 144 -110 226 -145
91 -39 188 -41 266 -6 57 25 103 67 96 87 -3 8 -43 21 -93 31 -137 27 -140 46
-9 79 105 27 116 39 71 74 -76 57 -209 83 -277 53z m208 -47 c23 -12 40 -26
37 -31 -3 -5 -31 -17 -62 -26 -53 -15 -93 -43 -93 -64 0 -23 43 -50 100 -62
73 -15 76 -32 10 -65 -34 -18 -61 -23 -116 -23 -65 0 -80 4 -160 44 -49 25
-105 59 -124 75 l-35 31 25 19 c43 34 127 82 187 107 72 31 165 29 231 -5z"></path>
<path fill="green" d="M2523 4286 c-75 -25 -257 -112 -273 -131 -18 -22 164 -172 276 -229
67 -34 175 -46 251 -27 55 14 156 76 151 93 -3 7 -48 26 -102 44 -54 19 -105
39 -113 45 -26 22 9 39 106 51 50 6 99 17 109 24 15 11 12 17 -34 62 -93 90
-227 114 -371 68z m249 -26 c29 -11 67 -31 83 -44 40 -32 26 -47 -57 -58 -35
-4 -74 -16 -88 -27 -54 -40 -32 -73 75 -110 43 -16 81 -33 83 -39 7 -21 -81
-55 -155 -60 -98 -6 -150 10 -253 80 -118 80 -164 122 -157 141 8 20 123 79
219 112 91 31 177 33 250 5z"></path>
<path fill="green" d="M700 970 c-19 -19 -20 -33 -20 -438 0 -393 1 -420 18 -435 22 -20 75
-22 91 -4 6 8 12 81 13 193 l3 179 140 6 c228 10 312 46 371 159 26 48 25 166
0 206 -77 120 -171 154 -433 154 -150 0 -165 -2 -183 -20z m430 -106 c107 -63
107 -206 0 -268 -29 -17 -58 -22 -166 -26 -72 -3 -139 -4 -148 -2 -14 3 -16
23 -16 156 0 84 3 156 8 160 4 4 70 6 147 4 119 -3 145 -6 175 -24z"></path>
<path fill="green" d="M1517 972 c-15 -17 -17 -62 -17 -443 0 -317 3 -428 12 -437 9 -9 85
-12 280 -12 l268 0 11 24 c8 17 8 29 0 45 -11 20 -18 21 -231 21 l-220 0 0
388 c0 335 -2 391 -16 410 -19 27 -64 29 -87 4z"></path>
<path fill="green" d="M2496 969 c-15 -11 -34 -37 -42 -57 -9 -21 -47 -113 -86 -207 -65
-158 -100 -243 -192 -469 -20 -49 -36 -99 -36 -111 0 -31 23 -47 62 -43 31 3
34 7 78 113 l46 110 224 0 224 0 37 -95 c49 -125 53 -130 93 -130 42 0 71 29
61 62 -7 21 -38 100 -135 333 -21 50 -63 153 -95 230 -85 208 -100 240 -126
263 -29 28 -78 28 -113 1z m149 -329 c47 -118 85 -221 85 -227 0 -10 -43 -13
-180 -13 -133 0 -180 3 -180 12 0 7 34 98 75 202 41 105 79 204 85 219 5 16
15 27 21 25 5 -2 48 -100 94 -218z"></path>
<path fill="green" d="M3136 969 l-26 -20 0 -423 c0 -315 3 -425 12 -434 16 -16 73 -15 87
1 7 9 12 126 13 363 l3 349 224 -335 c123 -184 235 -347 249 -362 32 -35 91
-39 122 -8 19 19 20 33 20 438 0 393 -1 420 -18 435 -24 22 -55 21 -75 -1 -15
-17 -17 -57 -17 -372 0 -304 -2 -352 -14 -340 -8 8 -118 171 -245 362 -126
191 -239 352 -250 357 -30 16 -55 13 -85 -10z"></path>
<path fill="green" d="M3982 978 c-7 -7 -12 -24 -12 -38 0 -45 14 -50 157 -50 l133 0 0
-383 c0 -427 0 -427 64 -427 19 0 39 6 45 13 7 10 12 136 13 403 l3 389 130 3
c102 2 133 6 147 19 23 21 23 45 0 66 -17 15 -55 17 -343 17 -240 0 -328 -3
-337 -12z"></path>
<path fill="green" d="M4996 715 c-21 -7 -51 -25 -66 -40 l-28 -27 -14 29 c-15 31 -46 40
-78 23 -20 -11 -20 -17 -18 -313 l3 -302 36 -3 c60 -5 63 5 69 239 5 191 7
210 26 236 30 41 82 73 118 73 39 0 76 25 76 50 0 22 -36 50 -65 50 -11 -1
-37 -7 -59 -15z"></path>
<path fill="green" d="M5420 714 c-140 -38 -229 -177 -217 -343 8 -115 21 -146 90 -217 76
-77 139 -100 249 -91 112 10 228 72 228 124 0 38 -27 38 -98 2 -60 -30 -76
-34 -148 -34 -72 0 -85 3 -123 28 -46 31 -77 85 -83 147 l-3 35 237 5 c166 3
241 9 249 17 15 15 -3 139 -26 184 -41 79 -108 128 -203 148 -66 14 -84 13
-152 -5z m177 -95 c49 -24 94 -90 97 -142 l1 -32 -187 -3 -188 -2 0 25 c0 54
64 142 120 164 42 17 111 12 157 -10z"></path>
<path fill="green" d="M6141 714 c-85 -23 -153 -83 -193 -169 -19 -42 -23 -67 -23 -150 0
-126 23 -182 102 -255 84 -77 182 -97 306 -65 89 23 157 72 157 112 0 37 -27
39 -94 5 -81 -41 -139 -54 -195 -41 -93 21 -147 79 -158 167 l-6 52 230 0
c281 0 273 -3 255 100 -25 145 -94 220 -230 249 -66 14 -84 13 -151 -5z m176
-95 c49 -24 94 -90 97 -142 l1 -32 -183 -3 c-207 -3 -207 -3 -178 72 42 109
159 155 263 105z"></path>
</g>
</svg>